<?xml version="1.0" standalone="no"?>
<!DOCTYPE svg PUBLIC "-//W3C//DTD SVG 20010904//EN"
 "http://www.w3.org/TR/2001/REC-SVG-20010904/DTD/svg10.dtd">
<svg version="1.0" xmlns="http://www.w3.org/2000/svg"
 width="369.000000pt" height="369.000000pt" viewBox="0 0 369.000000 369.000000"
 preserveAspectRatio="xMidYMid meet">
<metadata>
Created by potrace 1.14, written by Peter Selinger 2001-2017
</metadata>
<g transform="translate(0.000000,369.000000) scale(0.100000,-0.100000)"
fill="#000000" stroke="none">
<path d="M1313 2620 c-29 -9 -55 -15 -58 -14 -3 2 -3 1 0 -3 3 -4 -13 -15 -35
-25 -22 -10 -40 -23 -40 -29 0 -6 -4 -8 -9 -4 -5 3 -16 -1 -24 -9 -8 -8 -17
-12 -21 -9 -3 4 -6 1 -6 -6 0 -7 -4 -10 -9 -6 -5 3 -12 1 -16 -5 -8 -13 -138
-85 -147 -82 -5 1 -8 -3 -8 -9 0 -5 -13 -15 -30 -20 -16 -6 -27 -15 -24 -21 4
-6 -2 -8 -12 -6 -11 2 -28 -4 -38 -14 -11 -10 -32 -24 -48 -30 -15 -7 -28 -16
-28 -20 0 -4 -7 -4 -17 -1 -11 4 -14 3 -9 -5 4 -7 1 -12 -8 -12 -9 0 -25 -9
-35 -19 -11 -11 -22 -16 -26 -13 -3 4 -9 2 -13 -4 -8 -14 -74 -49 -84 -46 -5
1 -8 -3 -8 -8 0 -6 -6 -10 -14 -10 -8 0 -17 -7 -20 -16 -3 -8 -10 -13 -15 -10
-5 3 -14 -1 -21 -9 -7 -8 -16 -12 -21 -9 -5 3 -9 0 -9 -6 0 -6 -4 -8 -10 -5
-5 3 -10 3 -10 -2 0 -4 -26 -21 -57 -38 -53 -28 -143 -107 -143 -126 0 -20 -2
-24 -14 -31 -7 -4 -11 -21 -10 -37 1 -17 -3 -31 -8 -31 -6 0 -5 -6 2 -15 7 -9
8 -15 2 -15 -6 0 -4 -23 6 -59 9 -33 20 -58 24 -55 4 3 8 -3 8 -12 0 -20 71
-88 111 -106 16 -7 29 -17 29 -21 0 -5 4 -6 9 -2 6 3 13 0 18 -7 4 -7 31 -24
58 -38 28 -13 52 -27 55 -31 3 -3 25 -17 50 -29 25 -12 57 -31 71 -41 14 -10
29 -16 33 -12 3 3 6 1 6 -5 0 -6 10 -14 23 -18 12 -3 30 -13 40 -22 9 -8 17
-11 17 -7 0 4 8 -2 19 -13 10 -12 21 -18 25 -15 4 4 10 2 14 -4 4 -6 30 -23
57 -38 28 -16 59 -33 70 -39 10 -6 25 -17 33 -24 7 -7 18 -10 23 -7 5 4 9 2 9
-3 0 -9 52 -37 58 -30 2 1 8 -5 13 -15 6 -9 14 -15 20 -12 5 4 9 1 9 -4 0 -6
7 -11 15 -11 8 0 15 -5 15 -11 0 -5 4 -8 9 -4 5 3 12 1 15 -4 3 -5 37 -25 74
-45 63 -32 75 -35 143 -33 52 2 84 8 109 22 35 20 120 102 118 114 -1 3 4 18
10 33 18 43 21 111 7 151 -7 20 -10 39 -7 42 3 3 0 5 -6 5 -7 0 -12 6 -12 13
0 13 -71 97 -82 97 -4 0 -31 14 -60 31 -97 58 -123 72 -185 105 -34 17 -59 34
-57 37 6 5 -27 18 -36 14 -3 -1 -16 8 -29 20 -13 12 -28 20 -33 17 -4 -3 -8 0
-8 5 0 6 -7 11 -15 11 -8 0 -15 4 -15 8 0 5 -16 15 -35 22 -49 19 -60 34 -38
51 15 12 16 12 9 -1 -4 -9 -1 -8 7 3 8 9 19 17 26 17 6 0 11 5 11 11 0 5 5 7
10 4 6 -3 10 -1 10 5 0 6 5 8 10 5 6 -3 10 -1 10 4 0 6 5 11 11 11 6 0 22 9
36 20 14 11 29 17 34 14 5 -3 9 0 9 5 0 6 7 11 15 11 8 0 15 5 15 10 0 6 5 10
11 10 6 0 24 9 40 21 16 11 29 17 29 12 0 -4 6 -1 13 7 7 8 42 31 79 50 37 19
68 39 68 43 0 5 5 5 10 2 6 -3 10 -1 10 4 0 6 5 11 11 11 7 0 18 8 26 18 9 11
12 12 8 2 -4 -8 10 3 31 25 33 36 62 85 71 125 9 35 9 110 0 110 -5 0 -7 7 -3
15 3 8 -1 21 -9 29 -8 7 -11 16 -8 19 3 3 -2 13 -11 22 -9 9 -13 22 -9 28 3 7
3 9 -1 5 -5 -4 -18 4 -30 16 -32 35 -94 67 -140 72 -23 3 -45 6 -51 8 -5 2
-34 -4 -62 -14z"/>
<path d="M2254 2631 c-3 -3 -14 -6 -26 -8 -12 -2 -28 -9 -37 -16 -12 -10 -13
-9 -7 2 6 8 0 7 -18 -4 -14 -10 -26 -22 -26 -28 0 -6 -3 -7 -7 -4 -15 15 -90
-92 -97 -138 -1 -5 -5 -16 -9 -22 -5 -8 -3 -13 4 -13 8 0 9 -3 0 -13 -6 -8 -9
-16 -6 -18 2 -3 5 -23 6 -46 2 -23 6 -40 9 -38 4 2 12 -12 19 -31 13 -36 63
-94 81 -94 5 0 10 -4 10 -10 0 -5 7 -10 15 -10 8 0 15 -5 15 -11 0 -5 4 -8 9
-5 5 3 14 -1 21 -9 7 -8 18 -15 25 -15 7 0 18 -7 25 -15 7 -8 21 -15 31 -15
11 0 19 -7 19 -16 0 -8 4 -13 9 -9 5 3 15 0 23 -7 7 -7 20 -14 28 -16 8 -2 17
-7 20 -11 5 -8 29 -18 43 -19 5 0 16 -9 25 -20 9 -10 24 -17 32 -14 8 3 12 1
8 -3 -4 -4 11 -18 35 -29 23 -12 64 -35 91 -51 45 -26 47 -29 30 -41 -11 -7
-25 -18 -31 -24 -7 -6 -15 -9 -17 -8 -3 2 -14 -5 -26 -14 -11 -10 -20 -16 -20
-13 0 3 -29 -13 -65 -35 -36 -22 -65 -36 -65 -32 0 4 -4 2 -8 -4 -12 -17 -78
-54 -96 -54 -10 0 -15 -4 -12 -9 3 -5 -8 -14 -24 -20 -17 -5 -30 -15 -30 -21
0 -6 -4 -9 -9 -6 -5 3 -20 -3 -33 -14 -14 -11 -28 -16 -32 -13 -3 3 -6 1 -6
-5 0 -7 -5 -12 -10 -12 -6 0 -16 -4 -23 -10 -45 -36 -66 -58 -60 -63 3 -4 -1
-9 -10 -13 -9 -3 -19 -19 -22 -35 -4 -16 -10 -27 -14 -25 -9 6 -14 -77 -9
-144 3 -41 96 -168 112 -153 3 4 6 2 6 -4 0 -10 13 -16 75 -38 65 -23 167 1
244 57 13 10 27 15 32 12 5 -3 9 0 9 6 0 10 37 29 53 26 5 0 13 7 18 17 6 9
14 15 20 12 5 -4 9 -1 9 4 0 6 6 11 14 11 7 0 19 6 26 14 6 8 19 12 27 9 9 -4
14 -2 10 3 -3 5 24 25 59 44 35 19 64 38 64 43 0 4 4 6 10 2 5 -3 18 3 30 15
11 11 20 18 20 15 0 -3 18 6 40 20 22 14 44 25 49 25 5 0 11 3 13 8 3 7 18 16
118 69 25 13 51 32 58 41 6 9 12 12 12 8 0 -5 7 -3 15 4 8 7 15 9 15 4 0 -5 4
-4 8 1 4 6 24 19 44 30 20 10 34 23 32 27 -3 5 -2 7 3 6 15 -5 103 46 103 60
0 7 5 10 10 7 6 -3 10 1 10 10 0 8 7 18 15 21 8 4 12 10 9 15 -3 5 -1 9 4 9 9
0 14 13 29 75 9 39 9 60 1 78 -6 11 -5 17 4 17 10 0 10 2 1 8 -7 4 -14 17 -16
28 -4 29 -60 114 -74 114 -7 0 -13 4 -13 9 0 5 -15 16 -32 25 -47 24 -72 40
-80 51 -4 6 -8 6 -8 2 0 -5 -13 1 -29 12 -16 12 -34 21 -40 21 -6 0 -11 4 -11
8 0 5 -16 14 -35 22 -19 8 -35 17 -35 22 0 4 -6 8 -14 8 -7 0 -19 7 -26 15 -7
8 -16 12 -21 9 -5 -3 -9 0 -9 5 0 6 -4 11 -9 11 -12 0 -155 83 -159 92 -2 5
-8 8 -12 8 -5 0 -35 15 -67 34 -32 19 -62 35 -68 36 -5 1 -17 7 -25 14 -8 7
-42 28 -75 46 -33 19 -61 37 -63 42 -2 4 -12 8 -23 8 -10 0 -19 4 -19 8 0 5
-16 14 -35 22 -19 8 -35 17 -35 21 0 19 -161 55 -176 40z"/>
</g>
</svg>
